<?xml version="1.0" encoding="UTF-8"?>
<svg width="542px" height="484px" viewBox="0 0 542 484" xmlns="http://www.w3.org/2000/svg" xmlns:xlink="http://www.w3.org/1999/xlink" version="1.1">
 <!-- Generated by Pixelmator Pro 2.0.8 -->
 <g id="New-Group">
  <path id="Shape" d="M140 257.869 C131.475 257.802 121.669 257.379 118.208 256.929 114.748 256.48 108.223 255.16 103.708 253.997 99.194 252.833 91.863 250.427 87.419 248.65 82.974 246.873 75.978 243.496 71.871 241.147 67.764 238.797 61.726 234.885 58.452 232.452 55.178 230.02 48.746 224.31 44.157 219.765 39.569 215.219 32.897 207.13 29.33 201.789 25.764 196.449 21.06 188.031 18.877 183.083 16.693 178.136 13.803 169.735 12.454 164.416 10.249 155.725 10.001 152.703 10.007 134.622 10.013 118.086 10.364 113.04 11.978 106.307 13.059 101.8 15.461 94.348 17.317 89.746 19.172 85.144 22.532 78.225 24.784 74.371 27.035 70.516 30.899 64.693 33.37 61.431 35.841 58.169 41.382 52.051 45.682 47.837 49.982 43.622 57.091 37.619 61.48 34.497 65.869 31.375 73.519 26.859 78.48 24.462 83.441 22.064 90.875 18.988 95 17.627 99.125 16.266 106.1 14.406 110.5 13.493 114.9 12.58 123.759 11.581 130.187 11.272 136.807 10.955 146.561 11.233 152.687 11.914 158.634 12.576 167.315 14.049 171.978 15.189 176.642 16.329 183.288 18.327 186.749 19.63 190.209 20.932 196.74 23.858 201.262 26.132 205.784 28.406 212.638 32.405 216.492 35.02 220.346 37.635 226.906 42.693 231.068 46.261 235.231 49.83 241.898 56.344 245.885 60.738 249.872 65.132 256.367 72.974 260.317 78.165 264.268 83.356 268.175 88.621 269 89.864 270.479 92.094 270.592 92.001 277 83.315 280.575 78.47 287.463 69.903 292.306 64.279 297.15 58.654 304.575 51.066 308.806 47.416 313.038 43.766 319.559 38.614 323.298 35.966 327.037 33.319 334.012 29.139 338.798 26.677 343.584 24.215 351.46 20.81 356.301 19.11 361.142 17.411 369.467 15.105 374.801 13.986 380.198 12.854 390.71 11.682 398.5 11.345 408.802 10.899 415.274 11.155 423 12.314 428.775 13.18 437.55 15.067 442.5 16.506 447.45 17.946 455.56 21.044 460.522 23.39 465.484 25.737 472.684 29.731 476.522 32.265 480.36 34.799 485.975 38.942 489 41.472 492.025 44.002 496.463 48.193 498.862 50.786 501.262 53.379 505.774 58.891 508.89 63.036 512.006 67.182 516.449 74.214 518.764 78.663 521.079 83.113 524.53 91.422 526.432 97.127 528.335 102.832 530.479 111.55 531.196 116.5 531.913 121.45 532.458 130.265 532.406 136.089 532.355 141.913 531.562 150.78 530.645 155.794 529.728 160.808 527.67 168.754 526.072 173.452 524.474 178.15 521.095 185.889 518.562 190.65 516.03 195.41 511.932 202.145 509.455 205.615 506.979 209.085 501.701 215.251 497.726 219.317 493.752 223.383 486.884 229.375 482.464 232.632 478.043 235.89 470.675 240.507 466.09 242.893 461.504 245.278 454.096 248.569 449.626 250.205 445.157 251.841 437.675 254.07 433 255.158 426.951 256.566 419.191 257.3 406.087 257.705 391.416 258.158 385.522 257.927 377.087 256.568 371.264 255.629 362.584 253.558 357.797 251.965 353.01 250.373 345.586 247.291 341.297 245.118 337.009 242.944 330.044 238.766 325.821 235.833 321.598 232.9 314.749 227.444 310.603 223.708 306.456 219.972 299.532 212.685 295.215 207.514 290.899 202.343 283.599 192.829 278.994 186.371 270.619 174.63 270.619 174.63 268.858 177.065 267.889 178.404 264.551 183.1 261.439 187.5 258.327 191.9 252.468 199.593 248.419 204.596 244.37 209.599 237.654 216.924 233.495 220.875 229.336 224.826 222.422 230.661 218.131 233.843 213.84 237.024 206.275 241.722 201.319 244.281 196.363 246.841 188.289 250.281 183.377 251.927 178.464 253.573 170.182 255.611 164.973 256.456 159.015 257.422 149.749 257.946 140 257.869 Z M245.099 132.759 C231.931 113.183 225.198 103.875 221.64 99.446 218.083 95.016 211.114 87.529 206.153 82.808 201.193 78.088 193.66 72.061 189.414 69.414 185.168 66.768 178.073 63.142 173.646 61.357 169.22 59.573 161.393 57.355 156.252 56.43 149.181 55.156 143.568 54.875 133.202 55.273 123.499 55.645 117.365 56.418 112.185 57.921 108.162 59.088 101.41 61.783 97.181 63.909 92.952 66.035 86.246 70.315 82.278 73.419 78.31 76.524 72.512 82.312 69.393 86.282 66.274 90.252 62.005 97.034 59.906 101.354 57.807 105.673 55.293 112.648 54.32 116.854 53.269 121.392 52.539 128.565 52.525 134.5 52.509 140.859 53.179 147.369 54.366 152.38 55.392 156.714 58.185 164.139 60.572 168.88 62.959 173.621 67.193 180.301 69.981 183.725 72.769 187.149 77.851 192.22 81.275 194.996 84.699 197.771 91.325 202.015 96 204.427 100.675 206.838 107.793 209.807 111.818 211.024 115.842 212.24 123.492 213.59 128.818 214.022 134.143 214.455 142.775 214.578 148 214.296 153.225 214.014 160.82 212.935 164.878 211.9 168.936 210.864 175.461 208.474 179.378 206.588 183.295 204.703 189.425 200.936 193 198.219 196.575 195.501 203.107 189.503 207.516 184.889 211.925 180.275 218.962 171.775 223.153 166 227.344 160.225 233.996 150.383 237.936 144.129 L245.099 132.759 Z M404.5 214.351 C410.55 214.087 418.15 213.419 421.389 212.866 424.628 212.314 431.057 210.494 435.676 208.823 440.295 207.151 447.433 203.591 451.539 200.911 455.644 198.231 461.093 194.117 463.648 191.769 466.202 189.421 470.513 184.575 473.226 181 475.94 177.425 479.653 171.35 481.478 167.5 483.303 163.65 485.63 157.173 486.648 153.107 487.942 147.944 488.5 142.063 488.5 133.607 488.5 122.565 488.204 120.599 485.14 111.258 482.767 104.027 480.055 98.4 475.916 92.115 472.69 87.22 467.228 80.656 463.776 77.528 460.324 74.4 454.296 69.842 450.38 67.398 446.464 64.955 439.714 61.663 435.38 60.082 431.046 58.502 424.125 56.644 420 55.952 415.098 55.131 407.823 54.894 399 55.269 390.379 55.635 382.97 56.541 378.5 57.775 374.65 58.838 368.7 60.861 365.279 62.272 361.857 63.682 355.281 67.298 350.666 70.306 346.051 73.314 339.013 78.853 335.026 82.614 331.04 86.375 324.146 93.963 319.708 99.476 315.27 104.989 308.345 114.505 304.319 120.622 300.294 126.739 297 132.273 297 132.92 297 133.568 300.455 139.55 304.677 146.216 308.9 152.881 315.657 162.771 319.693 168.195 323.729 173.618 330.393 181.573 334.501 185.873 338.61 190.174 344.687 195.674 348.007 198.096 351.327 200.518 356.846 203.964 360.271 205.754 363.697 207.544 369.505 209.941 373.179 211.08 376.852 212.219 382.927 213.529 386.679 213.991 390.43 214.452 398.45 214.614 404.5 214.351 Z M386 167 L386 143 374.5 143 363 143 363 131 363 119 374.5 119 386 119 386 107 386 95 398.5 95 411 95 411 107 411 119 422.369 119 C433.738 119 433.738 119 434.358 122.75 434.699 124.813 434.978 128.525 434.978 131 434.978 133.475 434.699 137.188 434.358 139.25 433.738 143 433.738 143 422.369 143 L411 143 411 155 411 167 398.5 167 386 167 Z M96 122 L183.075 122 182.788 131.25 182.5 140.5 140.5 140.677 C117.4 140.774 97.938 140.624 97.25 140.343 96.382 139.989 96 137.111 96 130.917 L96 122 Z" fill="#00979d" fill-opacity="1" stroke="none"/>
  <path id="Path" d="M10 295 C10 295 12 475 271 475 531 475 532 295 532 295 L486 295 C486 295 530 435 271 435 16 435 55 295 55 295 L10 295 Z" fill="#00979d" fill-opacity="1" stroke="none"/>
 </g>
</svg>
